<?xml version="1.0" encoding="UTF-8" standalone="no"?>
<!-- Created with Inkscape (http://www.inkscape.org/) -->

<svg
   version="1.1"
   id="svg2"
   xml:space="preserve"
   width="2259.4053"
   height="1414.212"
   viewBox="0 0 2259.4053 1414.2121"
   sodipodi:docname="agric.svg"
   inkscape:version="1.1.1 (26b7af14f2, 2022-01-19)"
   xmlns:inkscape="http://www.inkscape.org/namespaces/inkscape"
   xmlns:sodipodi="http://sodipodi.sourceforge.net/DTD/sodipodi-0.dtd"
   xmlns="http://www.w3.org/2000/svg"
   xmlns:svg="http://www.w3.org/2000/svg"><defs
     id="defs6"><clipPath
       clipPathUnits="userSpaceOnUse"
       id="clipPath16"><path
         d="M 0,1127.774 H 3260.901 V 0 H 0 Z"
         id="path14" /></clipPath></defs><sodipodi:namedview
     id="namedview4"
     pagecolor="#ffffff"
     bordercolor="#666666"
     borderopacity="1.0"
     inkscape:pageshadow="2"
     inkscape:pageopacity="0.0"
     inkscape:pagecheckerboard="0"
     showgrid="false"
     inkscape:zoom="0.15122359"
     inkscape:cx="1920.9966"
     inkscape:cy="750.54429"
     inkscape:window-width="1528"
     inkscape:window-height="836"
     inkscape:window-x="72"
     inkscape:window-y="27"
     inkscape:window-maximized="1"
     inkscape:current-layer="g12" /><g
     id="g8"
     inkscape:groupmode="layer"
     inkscape:label="agroecology-1894029"
     transform="matrix(1.3333333,0,0,-1.3333333,0.51225689,1400.8468)"><g
       id="g10"><g
         id="g12"
         clip-path="url(#clipPath16)"><g
           id="g18"
           transform="matrix(0.92536564,0,0,1,918.02748,328.97189)"><path
             d="M 0,0 C 6.212,20.069 20.568,241.424 314.328,240.539 479.052,246.775 442.729,58.684 492.322,23.829 517.115,6.399 802.9,53.204 818.168,21.724 833.435,-9.75 851.685,-187.792 823.558,-192.325 795.429,-196.86 88.1,-224.465 12.646,-204.298 -3.5,-158.569 0,0 0,0"
             style="fill:#45a12b;fill-opacity:1;fill-rule:evenodd;stroke:none"
             id="path20" /></g><g
           id="g22"
           transform="matrix(0.92536564,0,0,1,918.02748,328.97189)"><path
             d="M 0,0 C 6.212,20.069 20.568,241.424 314.328,240.539 479.052,246.775 442.729,58.684 492.322,23.829 517.115,6.399 802.9,53.204 818.168,21.724 833.435,-9.75 851.685,-187.792 823.558,-192.325 795.429,-196.86 88.1,-224.465 12.646,-204.298 -3.5,-158.569 0,0 0,0 Z"
             style="fill:none;stroke:#45a12b;stroke-width:1;stroke-linecap:butt;stroke-linejoin:miter;stroke-miterlimit:4;stroke-dasharray:none;stroke-opacity:1"
             id="path24" /></g><g
           id="g26"
           transform="matrix(0.92536564,0,0,1,1208.0863,149.64179)"><path
             d="m 0,0 c 2.097,-83.277 -63.729,-152.521 -147.039,-154.617 -83.301,-2.097 -152.525,63.742 -154.621,147.021 -2.1,83.301 63.723,152.531 147.025,154.629 C -71.325,149.129 -2.098,83.302 0,0"
             style="fill:#45a12b;fill-opacity:1;fill-rule:evenodd;stroke:none"
             id="path28" /></g><g
           id="g30"
           transform="matrix(0.92536564,0,0,1,1208.0863,149.64179)"><path
             d="m 0,0 c 2.097,-83.277 -63.729,-152.521 -147.039,-154.617 -83.301,-2.097 -152.525,63.742 -154.621,147.021 -2.1,83.301 63.723,152.531 147.025,154.629 C -71.325,149.129 -2.098,83.302 0,0 Z"
             style="fill:none;stroke:#ffffff;stroke-width:10;stroke-linecap:butt;stroke-linejoin:miter;stroke-miterlimit:4;stroke-dasharray:none;stroke-opacity:1"
             id="path32" /></g><g
           id="g34"
           transform="matrix(0.92536564,0,0,1,1553.3208,97.239387)"><path
             d="m 0,0 c 1.331,-52.836 -40.428,-96.763 -93.277,-98.093 -52.849,-1.332 -96.767,40.439 -98.097,93.273 -1.33,52.846 40.43,96.767 93.279,98.098 C -45.249,94.609 -1.332,52.847 0,0"
             style="fill:#45a12b;fill-opacity:1;fill-rule:evenodd;stroke:none"
             id="path36" /></g><g
           id="g38"
           transform="matrix(0.92536564,0,0,1,1553.3208,97.239387)"><path
             d="m 0,0 c 1.331,-52.836 -40.428,-96.763 -93.277,-98.093 -52.849,-1.332 -96.767,40.439 -98.097,93.273 -1.33,52.846 40.43,96.767 93.279,98.098 C -45.249,94.609 -1.332,52.847 0,0 Z"
             style="fill:none;stroke:#ffffff;stroke-width:10;stroke-linecap:butt;stroke-linejoin:miter;stroke-miterlimit:4;stroke-dasharray:none;stroke-opacity:1"
             id="path40" /></g><g
           id="g42"
           transform="matrix(0.92536564,0,0,1,1139.7095,147.78729)"><path
             d="m 0,0 c 1.069,-42.486 -32.508,-77.805 -75.002,-78.875 -42.499,-1.067 -77.807,32.514 -78.879,75 -1.067,42.49 32.506,77.803 75.003,78.874 C -36.383,76.068 -1.071,42.49 0,0"
             style="fill:#ffffff;fill-opacity:1;fill-rule:evenodd;stroke:none"
             id="path44" /></g><g
           id="g46"
           transform="matrix(0.92536564,0,0,1,1139.7095,147.78729)"><path
             d="m 0,0 c 1.069,-42.486 -32.508,-77.805 -75.002,-78.875 -42.499,-1.067 -77.807,32.514 -78.879,75 -1.067,42.49 32.506,77.803 75.003,78.874 C -36.383,76.068 -1.071,42.49 0,0 Z"
             style="fill:none;stroke:#ffffff;stroke-width:1;stroke-linecap:butt;stroke-linejoin:miter;stroke-miterlimit:4;stroke-dasharray:none;stroke-opacity:1"
             id="path48" /></g><g
           id="g50"
           transform="matrix(0.92536564,0,0,1,1157.663,539.74429)"><path
             d="m 0,0 c 164.319,67.026 199.158,-180.61 192.503,-180.777 -13.1,-0.328 -186.049,-4.685 -186.049,-4.685 0,0 -170.767,118.438 -6.454,185.462"
             style="fill:#ffffff;fill-opacity:1;fill-rule:evenodd;stroke:none"
             id="path52" /></g><g
           id="g54"
           transform="matrix(0.92536564,0,0,1,960.77878,348.76239)"><path
             d="M 0,0 C 4.101,15.15 23.205,191.797 254.55,200.423 L 227.92,5.739 0,0"
             style="fill:#ffffff;fill-opacity:1;fill-rule:evenodd;stroke:#ffffff;stroke-width:1;stroke-linecap:butt;stroke-linejoin:miter;stroke-miterlimit:4;stroke-dasharray:none;stroke-opacity:1"
             id="path56" /></g><g
           id="g58"
           transform="matrix(0.92536564,0,0,1,1513.5221,96.157387)"><path
             d="m 0,0 c 0.731,-29.086 -22.259,-53.271 -51.352,-54.003 -29.091,-0.734 -53.27,22.264 -54.003,51.349 -0.731,29.092 22.255,53.269 51.349,54.003 C -24.911,52.082 -0.732,29.09 0,0"
             style="fill:#ffffff;fill-opacity:1;fill-rule:evenodd;stroke:none"
             id="path60" /></g><g
           id="g62"
           transform="matrix(0.92536564,0,0,1,1513.5221,96.157387)"><path
             d="m 0,0 c 0.731,-29.086 -22.259,-53.271 -51.352,-54.003 -29.091,-0.734 -53.27,22.264 -54.003,51.349 -0.731,29.092 22.255,53.269 51.349,54.003 C -24.911,52.082 -0.732,29.09 0,0 Z"
             style="fill:none;stroke:#ffffff;stroke-width:1;stroke-linecap:butt;stroke-linejoin:miter;stroke-miterlimit:4;stroke-dasharray:none;stroke-opacity:1"
             id="path64" /></g><g
           id="g66"
           transform="matrix(0.92536564,0,0,1,1498.5625,317.43329)"><path
             d="m 0,0 c -0.85,33.757 -1.699,67.514 -2.549,101.271 -0.342,-0.825 -0.683,-1.649 -1.025,-2.475 11.002,10.213 22.003,20.426 33.004,30.639 3.314,3.077 -1.647,8.016 -4.95,4.95 -9.097,-8.445 -18.193,-16.89 -27.291,-25.335 -1.974,-1.833 -6.811,-4.862 -6.733,-7.985 0.079,-3.149 0.159,-6.297 0.238,-9.446 C -8.59,63.164 -7.873,34.709 -7.157,6.254 -7.105,4.17 -7.053,2.085 -7,0 -6.887,-4.506 0.113,-4.517 0,0"
             style="fill:#45a12b;fill-opacity:1;fill-rule:nonzero;stroke:none"
             id="path68" /></g><g
           id="g70"
           transform="matrix(0.92536564,0,0,1,1230.4695,506.72139)"><path
             d="m 0,0 c 0.352,-14.01 -10.718,-25.654 -24.726,-26.006 -14.011,-0.355 -25.656,10.719 -26.009,24.728 -0.352,14.008 10.72,25.653 24.732,26.006 C -11.995,25.081 -0.354,14.008 0,0"
             style="fill:#45a12b;fill-opacity:1;fill-rule:nonzero;stroke:none"
             id="path72" /></g><g
           id="g74"
           transform="matrix(0.92536564,0,0,1,1230.4695,506.72139)"><path
             d="m 0,0 c 0.352,-14.01 -10.718,-25.654 -24.726,-26.006 -14.011,-0.355 -25.656,10.719 -26.009,24.728 -0.352,14.008 10.72,25.653 24.732,26.006 C -11.995,25.081 -0.354,14.008 0,0 Z"
             style="fill:none;stroke:#45a12b;stroke-width:1;stroke-linecap:butt;stroke-linejoin:miter;stroke-miterlimit:4;stroke-dasharray:none;stroke-opacity:1"
             id="path76" /></g><g
           id="g78"
           transform="matrix(0.92536564,0,0,1,1197.291,464.01919)"><path
             d="m 0,0 c 8.248,-4.216 9.646,-16.169 11.072,-24.311 1.475,-8.415 1.867,-18.207 6.496,-25.651 4.63,-7.446 15.082,-10.967 22.871,-13.747 6.14,-2.191 12.488,-3.987 18.866,-5.347 4.402,-0.939 6.275,5.808 1.861,6.75 -6.02,1.284 -11.965,3.006 -17.793,4.975 -7.647,2.583 -18.355,5.968 -21.399,14.282 C 16.499,-28.097 20.252,-2.501 3.533,6.044 -0.478,8.094 -4.021,2.055 0,0"
             style="fill:#45a12b;fill-opacity:1;fill-rule:nonzero;stroke:none"
             id="path80" /></g><g
           id="g82"
           transform="matrix(0.92536564,0,0,1,1195.3951,465.39759)"><path
             d="m 0,0 c -6.653,-13.77 -12.771,-27.818 -18.572,-41.964 -4.747,-11.574 -9.192,-23.287 -12.968,-35.215 -3.093,-9.768 -6.023,-20.02 -6.37,-30.325 -0.153,-4.517 6.847,-4.502 7,0 0.327,9.682 3.254,19.281 6.12,28.463 3.612,11.574 7.97,22.916 12.53,34.143 5.67,13.96 11.747,27.795 18.305,41.365 C 7.999,0.512 1.964,4.063 0,0"
             style="fill:#45a12b;fill-opacity:1;fill-rule:nonzero;stroke:none"
             id="path84" /></g><g
           id="g86"
           transform="matrix(0.92536564,0,0,1,1256.8432,275.08999)"><path
             d="m 0,0 c -0.85,33.757 -1.7,67.514 -2.55,101.271 -0.342,-0.825 -0.683,-1.65 -1.025,-2.476 11.003,10.214 22.005,20.427 33.008,30.64 3.315,3.077 -1.647,8.016 -4.95,4.95 -9.098,-8.445 -18.196,-16.89 -27.294,-25.336 -1.974,-1.833 -6.812,-4.861 -6.734,-7.985 0.08,-3.149 0.159,-6.297 0.238,-9.446 C -8.59,63.164 -7.874,34.709 -7.157,6.254 -7.105,4.169 -7.053,2.085 -7,0 -6.887,-4.506 0.113,-4.517 0,0"
             style="fill:#45a12b;fill-opacity:1;fill-rule:nonzero;stroke:none"
             id="path88" /></g><path
           d="M -0.06384218,-0.06484614 H 782.08115 L 815.99231,110.16677 783.21189,87.337946 l 18.8679,98.947214 c 0,0 -31.38655,-74.39118 -39.59468,-77.37055 -8.20729,-2.98137 -9.38984,109.3325 -9.38984,109.3325 l -13.36005,-83.12626 c 0,0 -7.59497,67.98639 -14.0275,85.61057 -6.4333,17.62417 -2.89447,-85.65758 -2.89447,-85.65758 0,0 -19.49049,44.27447 -18.34373,19.81645 1.14683,-24.45702 -10.10931,-32.04696 -10.10931,-32.04696 l -7.19968,57.4561 c 0,0 -14.50769,-45.93768 -22.62224,-61.64962 -8.11579,-15.70994 1.48295,53.61762 1.48295,53.61762 l -19.82874,-46.25971 -3.71332,39.6379 -8.23605,-19.00535 c 0,0 -0.46299,128.07081 -1.98164,82.89423 -1.51825,-45.17557 -12.63072,-71.62184 -18.76855,-74.12715 -6.13702,-2.50431 -0.74373,31.08784 -0.74373,31.08784 l -7.03385,-19.71143 -0.037,51.10331 c 0,0 -14.02296,-63.68787 -16.22378,-48.37598 -2.20041,15.31189 0.0899,57.16306 -7.22183,37.77667 -7.31377,-19.3854 -28.45799,-22.98084 -16.40396,-10.68332 4.56705,4.65857 19.00415,26.46427 6.91769,19.59942 -12.08564,-6.86585 -4.63027,4.8586 -2.56202,9.28815 4.32079,8.06299 5.92769,26.24624 5.92769,26.24624 0,0 -7.36056,5.99974 -9.73213,14.84383 -2.37075,8.84209 1.94306,24.96008 1.94306,24.96008 l -9.53717,-0.55107 1.3434,26.45627 -16.01362,-7.63294 5.85011,59.88439 c 0,0 -14.31437,-59.59036 -18.82273,-62.48971 -4.50836,-2.89936 7.88676,79.09076 7.88676,79.09076 l -14.3862,-42.64426 2.82634,80.07788 -9.40254,-69.40657 -1.3085,38.22772 -7.42255,-36.5115 3.52247,58.89127 c 0,0 -13.65766,-39.6809 -16.4721,-38.0097 -2.81403,1.67021 3.88777,52.20745 3.88777,52.20745 l -21.34983,-48.77502 c 0,0 -16.96053,72.80099 -19.33743,48.80903 -2.37568,-23.99297 -11.02873,-34.39825 -11.02873,-34.39825 0,0 -1.59501,53.64462 -1.62702,35.01032 -0.0304,-18.6353 -8.55374,-22.22574 -8.55374,-22.22574 0,0 -0.4207,116.37237 -3.50071,80.37992 -3.08,-35.99144 -16.3941,-73.83312 -19.53444,-57.93215 -3.14034,15.90196 -0.60254,58.24819 -0.60254,58.24819 l -19.4421,-29.45864 1.5909,16.09499 -15.4747,-17.48716 c 0,0 10.66713,132.42735 2.21764,76.34643 -8.4503,-56.08293 -19.6075,-66.59422 -19.6075,-66.59422 l -2.19179,42.1512 -8.94325,-39.02582 -2.89859,22.13573 -9.12056,-15.08386 c 0,0 17.37426,108.41139 6.68004,67.59635 -10.69504,-40.81404 -27.995,-51.68338 -27.995,-51.68338 l 1.48294,53.61662 -9.26052,-42.24222 0.98754,74.33918 -17.17807,-58.03016 c 0,0 -5.98597,25.19911 -0.35421,47.88691 5.63175,22.6868 -20.263,-77.46457 -20.263,-77.46457 l -6.75268,34.61228 -5.26646,-27.56041 c 0,0 -8.2853,89.8861 -9.10702,55.72688 -0.82131,-34.15921 -13.16306,-49.4721 -13.16306,-49.4721 l -7.47631,33.88018 c 0,0 -4.03717,-46.65076 -6.65788,-55.64787 -2.61947,-8.99811 -24.80747,30.66278 -24.80747,30.66278 l -2.21683,-43.62638 c 0,0 -25.15306,46.71577 -14.04634,25.1541 11.10672,-21.56266 -10.00836,-49.04605 -15.88187,-49.92016 -5.87351,-0.87411 -17.02785,38.57776 -17.02785,38.57776 0,0 -6.62914,-50.28121 -8.69492,-49.3861 -2.06661,0.89512 -1.09795,78.97376 -1.09795,78.97376 0,0 -12.81664,-86.06263 -15.79608,-85.74359 -2.97944,0.32004 -14.84057,50.52724 -14.84057,50.52724 0,0 -0.54836,-53.95366 -6.76664,-50.04918 -6.217467,3.90648 -15.11023,57.68712 -15.11023,57.68712 0,0 -1.455452,-46.67876 -4.861757,-48.65601 -3.405485,-1.97824 -21.26161,33.63916 -21.26161,33.63916 l 12.528923,-73.89713 -13.652729,20.42152 -1.626195,-44.00843 -8.112913,27.45139 c 0,0 -2.330934,-27.46539 -5.362091,-36.21247 -3.031978,-8.74808 -16.741348,1.27415 -16.741348,1.27415 L 43.052476,330.44196 -0.06384218,316.71927 Z"
           style="fill:#45a12b;fill-opacity:1;fill-rule:nonzero;stroke:none;stroke-width:0.640701"
           id="path90" /><path
           d="M -0.06384218,-0.06484614 H 782.08115 L 815.99231,110.16677 783.21189,87.337946 l 18.8679,98.947214 c 0,0 -31.38655,-74.39118 -39.59468,-77.37055 -8.20729,-2.98137 -9.38984,109.3325 -9.38984,109.3325 l -13.36005,-83.12626 c 0,0 -7.59497,67.98639 -14.0275,85.61057 -6.4333,17.62417 -2.89447,-85.65758 -2.89447,-85.65758 0,0 -19.49049,44.27447 -18.34373,19.81645 1.14683,-24.45702 -10.10931,-32.04696 -10.10931,-32.04696 l -7.19968,57.4561 c 0,0 -14.50769,-45.93768 -22.62224,-61.64962 -8.11579,-15.70994 1.48295,53.61762 1.48295,53.61762 l -19.82874,-46.25971 -3.71332,39.6379 -8.23605,-19.00535 c 0,0 -0.46299,128.07081 -1.98164,82.89423 -1.51825,-45.17557 -12.63072,-71.62184 -18.76855,-74.12715 -6.13702,-2.50431 -0.74373,31.08784 -0.74373,31.08784 l -7.03385,-19.71143 -0.037,51.10331 c 0,0 -14.02296,-63.68787 -16.22378,-48.37598 -2.20041,15.31189 0.0899,57.16306 -7.22183,37.77667 -7.31377,-19.3854 -28.45799,-22.98084 -16.40396,-10.68332 4.56705,4.65857 19.00415,26.46427 6.91769,19.59942 -12.08564,-6.86585 -4.63027,4.8586 -2.56202,9.28815 4.32079,8.06299 5.92769,26.24624 5.92769,26.24624 0,0 -7.36056,5.99974 -9.73213,14.84383 -2.37075,8.84209 1.94306,24.96008 1.94306,24.96008 l -9.53717,-0.55107 1.3434,26.45627 -16.01362,-7.63294 5.85011,59.88439 c 0,0 -14.31437,-59.59036 -18.82273,-62.48971 -4.50836,-2.89936 7.88676,79.09076 7.88676,79.09076 l -14.3862,-42.64426 2.82634,80.07788 -9.40254,-69.40657 -1.3085,38.22772 -7.42255,-36.5115 3.52247,58.89127 c 0,0 -13.65766,-39.6809 -16.4721,-38.0097 -2.81403,1.67021 3.88777,52.20745 3.88777,52.20745 l -21.34983,-48.77502 c 0,0 -16.96053,72.80099 -19.33743,48.80903 -2.37568,-23.99297 -11.02873,-34.39825 -11.02873,-34.39825 0,0 -1.59501,53.64462 -1.62702,35.01032 -0.0304,-18.6353 -8.55374,-22.22574 -8.55374,-22.22574 0,0 -0.4207,116.37237 -3.50071,80.37992 -3.08,-35.99144 -16.3941,-73.83312 -19.53444,-57.93215 -3.14034,15.90196 -0.60254,58.24819 -0.60254,58.24819 l -19.4421,-29.45864 1.5909,16.09499 -15.4747,-17.48716 c 0,0 10.66713,132.42735 2.21764,76.34643 -8.4503,-56.08293 -19.6075,-66.59422 -19.6075,-66.59422 l -2.19179,42.1512 -8.94325,-39.02582 -2.89859,22.13573 -9.12056,-15.08386 c 0,0 17.37426,108.41139 6.68004,67.59635 -10.69504,-40.81404 -27.995,-51.68338 -27.995,-51.68338 l 1.48294,53.61662 -9.26052,-42.24222 0.98754,74.33918 -17.17807,-58.03016 c 0,0 -5.98597,25.19911 -0.35421,47.88691 5.63175,22.6868 -20.263,-77.46457 -20.263,-77.46457 l -6.75268,34.61228 -5.26646,-27.56041 c 0,0 -8.2853,89.8861 -9.10702,55.72688 -0.82131,-34.15921 -13.16306,-49.4721 -13.16306,-49.4721 l -7.47631,33.88018 c 0,0 -4.03717,-46.65076 -6.65788,-55.64787 -2.61947,-8.99811 -24.80747,30.66278 -24.80747,30.66278 l -2.21683,-43.62638 c 0,0 -25.15306,46.71577 -14.04634,25.1541 11.10672,-21.56266 -10.00836,-49.04605 -15.88187,-49.92016 -5.87351,-0.87411 -17.02785,38.57776 -17.02785,38.57776 0,0 -6.62914,-50.28121 -8.69492,-49.3861 -2.06661,0.89512 -1.09795,78.97376 -1.09795,78.97376 0,0 -12.81664,-86.06263 -15.79608,-85.74359 -2.97944,0.32004 -14.84057,50.52724 -14.84057,50.52724 0,0 -0.54836,-53.95366 -6.76664,-50.04918 -6.217467,3.90648 -15.11023,57.68712 -15.11023,57.68712 0,0 -1.455452,-46.67876 -4.861757,-48.65601 -3.405485,-1.97824 -21.26161,33.63916 -21.26161,33.63916 l 12.528923,-73.89713 -13.652729,20.42152 -1.626195,-44.00843 -8.112913,27.45139 c 0,0 -2.330934,-27.46539 -5.362091,-36.21247 -3.031978,-8.74808 -16.741348,1.27415 -16.741348,1.27415 L 43.052476,330.44196 -0.06384218,316.71927 Z"
           style="fill:none;stroke:#45a12b;stroke-width:0.640701;stroke-linecap:butt;stroke-linejoin:miter;stroke-miterlimit:4;stroke-dasharray:none;stroke-opacity:1"
           id="path92" /><g
           id="g94"
           transform="matrix(0.41044788,0,0,1.0001235,780.69138,624.39406)"><path
             d="m 0,0 c -5.334,-41 -42.896,-69.915 -83.898,-64.58 -41.002,5.333 -69.915,42.896 -64.581,83.895 5.333,41.005 42.895,69.92 83.897,64.584 C -23.581,78.567 5.334,41.003 0,0"
             style="fill:#45a12b;fill-opacity:1;fill-rule:nonzero;stroke:none"
             id="path96" /></g><g
           id="g98"
           transform="matrix(0.41044788,0,0,1.0001235,780.69138,624.39406)"><path
             d="m 0,0 c -5.334,-41 -42.896,-69.915 -83.898,-64.58 -41.002,5.333 -69.915,42.896 -64.581,83.895 5.333,41.005 42.895,69.92 83.897,64.584 C -23.581,78.567 5.334,41.003 0,0 Z"
             style="fill:none;stroke:#45a12b;stroke-width:1;stroke-linecap:butt;stroke-linejoin:miter;stroke-miterlimit:4;stroke-dasharray:none;stroke-opacity:1"
             id="path100" /></g><g
           id="g102"
           transform="matrix(0.41044788,0,0,1.0001235,740.23665,533.1729)"><path
             d="m 0,0 c -5.334,-41.002 -42.898,-69.912 -83.899,-64.58 -40.999,5.335 -69.915,42.894 -64.581,83.895 5.334,41.002 42.896,69.917 83.897,64.582 C -23.581,78.564 5.334,41 0,0"
             style="fill:#45a12b;fill-opacity:1;fill-rule:nonzero;stroke:none"
             id="path104" /></g><g
           id="g106"
           transform="matrix(0.41044788,0,0,1.0001235,740.23665,533.1729)"><path
             d="m 0,0 c -5.334,-41.002 -42.898,-69.912 -83.899,-64.58 -40.999,5.335 -69.915,42.894 -64.581,83.895 5.334,41.002 42.896,69.917 83.897,64.582 C -23.581,78.564 5.334,41 0,0 Z"
             style="fill:none;stroke:#45a12b;stroke-width:1;stroke-linecap:butt;stroke-linejoin:miter;stroke-miterlimit:4;stroke-dasharray:none;stroke-opacity:1"
             id="path108" /></g><g
           id="g110"
           transform="matrix(0.41044788,0,0,1.0001235,812.55238,510.25017)"><path
             d="m 0,0 c -5.334,-41.001 -42.898,-69.914 -83.896,-64.58 -41,5.334 -69.917,42.894 -64.583,83.895 5.333,41.001 42.897,69.916 83.898,64.583 C -23.584,78.564 5.333,41.001 0,0"
             style="fill:#45a12b;fill-opacity:1;fill-rule:nonzero;stroke:none"
             id="path112" /></g><g
           id="g114"
           transform="matrix(0.41044788,0,0,1.0001235,812.55238,510.25017)"><path
             d="m 0,0 c -5.334,-41.001 -42.898,-69.914 -83.896,-64.58 -41,5.334 -69.917,42.894 -64.583,83.895 5.333,41.001 42.897,69.916 83.898,64.583 C -23.584,78.564 5.333,41.001 0,0 Z"
             style="fill:none;stroke:#45a12b;stroke-width:1;stroke-linecap:butt;stroke-linejoin:miter;stroke-miterlimit:4;stroke-dasharray:none;stroke-opacity:1"
             id="path116" /></g><g
           id="g118"
           transform="matrix(0.41044788,0,0,1.0001235,737.606,360.75851)"><path
             d="m 0,0 c -7.2,-55.353 -57.915,-94.393 -113.271,-87.193 -55.355,7.201 -94.396,57.919 -87.195,113.272 7.2,55.353 57.919,94.397 113.275,87.196 C -31.836,106.073 7.2,55.354 0,0"
             style="fill:#45a12b;fill-opacity:1;fill-rule:nonzero;stroke:none"
             id="path120" /></g><g
           id="g122"
           transform="matrix(0.41044788,0,0,1.0001235,737.606,360.75851)"><path
             d="m 0,0 c -7.2,-55.353 -57.915,-94.393 -113.271,-87.193 -55.355,7.201 -94.396,57.919 -87.195,113.272 7.2,55.353 57.919,94.397 113.275,87.196 C -31.836,106.073 7.2,55.354 0,0 Z"
             style="fill:none;stroke:#45a12b;stroke-width:1;stroke-linecap:butt;stroke-linejoin:miter;stroke-miterlimit:4;stroke-dasharray:none;stroke-opacity:1"
             id="path124" /></g><g
           id="g126"
           transform="matrix(0.41044788,0,0,1.0001235,816.57876,335.72562)"><path
             d="m 0,0 c -7.201,-55.353 -57.914,-94.395 -113.271,-87.192 -55.356,7.201 -94.396,57.918 -87.195,113.27 7.201,55.353 57.916,94.398 113.274,87.196 C -31.837,106.073 7.2,55.353 0,0"
             style="fill:#45a12b;fill-opacity:1;fill-rule:nonzero;stroke:none"
             id="path128" /></g><g
           id="g130"
           transform="matrix(0.41044788,0,0,1.0001235,816.57876,335.72562)"><path
             d="m 0,0 c -7.201,-55.353 -57.914,-94.395 -113.271,-87.192 -55.356,7.201 -94.396,57.918 -87.195,113.27 7.201,55.353 57.916,94.398 113.274,87.196 C -31.837,106.073 7.2,55.353 0,0 Z"
             style="fill:none;stroke:#45a12b;stroke-width:1;stroke-linecap:butt;stroke-linejoin:miter;stroke-miterlimit:4;stroke-dasharray:none;stroke-opacity:1"
             id="path132" /></g><g
           id="g134"
           transform="matrix(0.41044788,0,0,1.0001235,751.55202,641.7175)"><path
             d="m 0,0 -117.989,-105.026 -6.547,-173.694 183.4,-39.909 15.515,196.839 z"
             style="fill:#45a12b;fill-opacity:1;fill-rule:nonzero;stroke:none"
             id="path136" /></g><g
           id="g138"
           transform="matrix(0.41044788,0,0,1.0001235,751.55202,641.7175)"><path
             d="m 0,0 -117.989,-105.026 -6.547,-173.694 183.4,-39.909 15.515,196.839 z"
             style="fill:none;stroke:#45a12b;stroke-width:1;stroke-linecap:butt;stroke-linejoin:miter;stroke-miterlimit:4;stroke-dasharray:none;stroke-opacity:1"
             id="path140" /></g><g
           id="g142"
           transform="matrix(0.41044788,0,0,1.0001235,574.50946,711.335)"><path
             d="m 0,0 c -7.073,-29.375 -36.629,-47.457 -66.009,-40.382 -29.376,7.073 -47.458,36.626 -40.385,65.999 C -99.318,55 -69.768,73.081 -40.391,66.008 -11.012,58.934 7.074,29.383 0,0"
             style="fill:#45a12b;fill-opacity:1;fill-rule:nonzero;stroke:none"
             id="path144" /></g><g
           id="g146"
           transform="matrix(0.41044788,0,0,1.0001235,574.50946,711.335)"><path
             d="m 0,0 c -7.073,-29.375 -36.629,-47.457 -66.009,-40.382 -29.376,7.073 -47.458,36.626 -40.385,65.999 C -99.318,55 -69.768,73.081 -40.391,66.008 -11.012,58.934 7.074,29.383 0,0 Z"
             style="fill:none;stroke:#45a12b;stroke-width:1;stroke-linecap:butt;stroke-linejoin:miter;stroke-miterlimit:4;stroke-dasharray:none;stroke-opacity:1"
             id="path148" /></g><g
           id="g150"
           transform="matrix(0.41044788,0,0,1.0001235,542.19153,652.73596)"><path
             d="m 0,0 c -7.073,-29.375 -36.625,-47.459 -66.006,-40.384 -29.374,7.072 -47.457,36.627 -40.385,66.001 7.074,29.377 36.629,47.46 66.001,40.387 C -11.008,58.93 7.073,29.377 0,0"
             style="fill:#45a12b;fill-opacity:1;fill-rule:nonzero;stroke:none"
             id="path152" /></g><g
           id="g154"
           transform="matrix(0.41044788,0,0,1.0001235,542.19153,652.73596)"><path
             d="m 0,0 c -7.073,-29.375 -36.625,-47.459 -66.006,-40.384 -29.374,7.072 -47.457,36.627 -40.385,66.001 7.074,29.377 36.629,47.46 66.001,40.387 C -11.008,58.93 7.073,29.377 0,0 Z"
             style="fill:none;stroke:#45a12b;stroke-width:1;stroke-linecap:butt;stroke-linejoin:miter;stroke-miterlimit:4;stroke-dasharray:none;stroke-opacity:1"
             id="path156" /></g><g
           id="g158"
           transform="matrix(0.41044788,0,0,1.0001235,594.00696,622.33481)"><path
             d="m 0,0 c -7.073,-29.373 -36.624,-47.459 -66.003,-40.385 -29.379,7.074 -47.458,36.628 -40.385,66.001 7.075,29.377 36.623,47.463 66.003,40.388 C -11.007,58.932 7.073,29.377 0,0"
             style="fill:#45a12b;fill-opacity:1;fill-rule:nonzero;stroke:none"
             id="path160" /></g><g
           id="g162"
           transform="matrix(0.41044788,0,0,1.0001235,594.00696,622.33481)"><path
             d="m 0,0 c -7.073,-29.373 -36.624,-47.459 -66.003,-40.385 -29.379,7.074 -47.458,36.628 -40.385,66.001 7.075,29.377 36.623,47.463 66.003,40.388 C -11.007,58.932 7.073,29.377 0,0 Z"
             style="fill:none;stroke:#45a12b;stroke-width:1;stroke-linecap:butt;stroke-linejoin:miter;stroke-miterlimit:4;stroke-dasharray:none;stroke-opacity:1"
             id="path164" /></g><g
           id="g166"
           transform="matrix(0.41044788,0,0,1.0001235,534.76095,527.95105)"><path
             d="m 0,0 c -9.549,-39.659 -49.45,-64.077 -89.113,-54.526 -39.666,9.55 -64.075,49.454 -54.526,89.111 9.551,39.663 49.446,64.077 89.112,54.526 C -14.865,79.56 9.549,39.662 0,0"
             style="fill:#45a12b;fill-opacity:1;fill-rule:nonzero;stroke:none"
             id="path168" /></g><g
           id="g170"
           transform="matrix(0.41044788,0,0,1.0001235,534.76095,527.95105)"><path
             d="m 0,0 c -9.549,-39.659 -49.45,-64.077 -89.113,-54.526 -39.666,9.55 -64.075,49.454 -54.526,89.111 9.551,39.663 49.446,64.077 89.112,54.526 C -14.865,79.56 9.549,39.662 0,0 Z"
             style="fill:none;stroke:#45a12b;stroke-width:1;stroke-linecap:butt;stroke-linejoin:miter;stroke-miterlimit:4;stroke-dasharray:none;stroke-opacity:1"
             id="path172" /></g><g
           id="g174"
           transform="matrix(0.41044788,0,0,1.0001235,591.34587,494.75115)"><path
             d="m 0,0 c -9.548,-39.659 -49.448,-64.076 -89.111,-54.526 -39.664,9.55 -64.078,49.454 -54.53,89.112 9.551,39.664 49.453,64.076 89.116,54.525 C -14.863,79.561 9.551,39.663 0,0"
             style="fill:#45a12b;fill-opacity:1;fill-rule:nonzero;stroke:none"
             id="path176" /></g><g
           id="g178"
           transform="matrix(0.41044788,0,0,1.0001235,591.34587,494.75115)"><path
             d="m 0,0 c -9.548,-39.659 -49.448,-64.076 -89.111,-54.526 -39.664,9.55 -64.078,49.454 -54.53,89.112 9.551,39.664 49.453,64.076 89.116,54.525 C -14.863,79.561 9.551,39.663 0,0 Z"
             style="fill:none;stroke:#45a12b;stroke-width:1;stroke-linecap:butt;stroke-linejoin:miter;stroke-miterlimit:4;stroke-dasharray:none;stroke-opacity:1"
             id="path180" /></g><g
           id="g182"
           transform="matrix(0.41044788,0,0,1.0001235,553.88688,729.46224)"><path
             d="m 0,0 -93.93,-67.115 -18.3,-125.71 130.153,-43.301 26.63,141.824 z"
             style="fill:#45a12b;fill-opacity:1;fill-rule:nonzero;stroke:none"
             id="path184" /></g><g
           id="g186"
           transform="matrix(0.41044788,0,0,1.0001235,553.88688,729.46224)"><path
             d="m 0,0 -93.93,-67.115 -18.3,-125.71 130.153,-43.301 26.63,141.824 z"
             style="fill:none;stroke:#45a12b;stroke-width:1;stroke-linecap:butt;stroke-linejoin:miter;stroke-miterlimit:4;stroke-dasharray:none;stroke-opacity:1"
             id="path188" /></g><g
           id="g190"
           transform="matrix(0.41044788,0,0,1.0001235,340.33856,972.66757)"><path
             d="m 0,0 c -1.432,-41.322 -36.092,-73.658 -77.413,-72.226 -41.322,1.432 -73.661,36.089 -72.232,77.409 1.432,41.323 36.093,73.664 77.414,72.229 C -30.91,75.981 1.431,41.322 0,0"
             style="fill:#45a12b;fill-opacity:1;fill-rule:nonzero;stroke:none"
             id="path192" /></g><g
           id="g194"
           transform="matrix(0.41044788,0,0,1.0001235,340.33856,972.66757)"><path
             d="m 0,0 c -1.432,-41.322 -36.092,-73.658 -77.413,-72.226 -41.322,1.432 -73.661,36.089 -72.232,77.409 1.432,41.323 36.093,73.664 77.414,72.229 C -30.91,75.981 1.431,41.322 0,0 Z"
             style="fill:none;stroke:#45a12b;stroke-width:1;stroke-linecap:butt;stroke-linejoin:miter;stroke-miterlimit:4;stroke-dasharray:none;stroke-opacity:1"
             id="path196" /></g><g
           id="g198"
           transform="matrix(0.41044788,0,0,1.0001235,303.60648,872.5287)"><path
             d="m 0,0 c -1.431,-41.32 -36.09,-73.659 -77.413,-72.228 -41.319,1.432 -73.66,36.091 -72.229,77.41 1.432,41.324 36.093,73.662 77.411,72.23 C -30.906,75.98 1.432,41.323 0,0"
             style="fill:#45a12b;fill-opacity:1;fill-rule:nonzero;stroke:none"
             id="path200" /></g><g
           id="g202"
           transform="matrix(0.41044788,0,0,1.0001235,303.60648,872.5287)"><path
             d="m 0,0 c -1.431,-41.32 -36.09,-73.659 -77.413,-72.228 -41.319,1.432 -73.66,36.091 -72.229,77.41 1.432,41.324 36.093,73.662 77.411,72.23 C -30.906,75.98 1.432,41.323 0,0 Z"
             style="fill:none;stroke:#45a12b;stroke-width:1;stroke-linecap:butt;stroke-linejoin:miter;stroke-miterlimit:4;stroke-dasharray:none;stroke-opacity:1"
             id="path204" /></g><g
           id="g206"
           transform="matrix(0.41044788,0,0,1.0001235,376.48703,866.37754)"><path
             d="m 0,0 c -1.431,-41.319 -36.09,-73.66 -77.412,-72.228 -41.319,1.431 -73.658,36.091 -72.227,77.411 1.432,41.324 36.092,73.658 77.41,72.229 C -30.907,75.98 1.431,41.325 0,0"
             style="fill:#45a12b;fill-opacity:1;fill-rule:nonzero;stroke:none"
             id="path208" /></g><g
           id="g210"
           transform="matrix(0.41044788,0,0,1.0001235,376.48703,866.37754)"><path
             d="m 0,0 c -1.431,-41.319 -36.09,-73.66 -77.412,-72.228 -41.319,1.431 -73.658,36.091 -72.227,77.411 1.432,41.324 36.092,73.658 77.41,72.229 C -30.907,75.98 1.431,41.325 0,0 Z"
             style="fill:none;stroke:#45a12b;stroke-width:1;stroke-linecap:butt;stroke-linejoin:miter;stroke-miterlimit:4;stroke-dasharray:none;stroke-opacity:1"
             id="path212" /></g><g
           id="g214"
           transform="matrix(0.41044788,0,0,1.0001235,307.68148,700.28093)"><path
             d="m 0,0 c -1.932,-55.784 -48.727,-99.45 -104.514,-97.517 -55.79,1.932 -99.451,48.729 -97.521,104.514 1.933,55.79 48.727,99.452 104.518,97.521 C -41.729,102.584 1.93,55.789 0,0"
             style="fill:#45a12b;fill-opacity:1;fill-rule:nonzero;stroke:none"
             id="path216" /></g><g
           id="g218"
           transform="matrix(0.41044788,0,0,1.0001235,307.68148,700.28093)"><path
             d="m 0,0 c -1.932,-55.784 -48.727,-99.45 -104.514,-97.517 -55.79,1.932 -99.451,48.729 -97.521,104.514 1.933,55.79 48.727,99.452 104.518,97.521 C -41.729,102.584 1.93,55.789 0,0 Z"
             style="fill:none;stroke:#45a12b;stroke-width:1;stroke-linecap:butt;stroke-linejoin:miter;stroke-miterlimit:4;stroke-dasharray:none;stroke-opacity:1"
             id="path220" /></g><g
           id="g222"
           transform="matrix(0.41044788,0,0,1.0001235,387.2711,693.5638)"><path
             d="m 0,0 c -1.932,-55.784 -48.724,-99.448 -104.514,-97.518 -55.792,1.933 -99.45,48.731 -97.518,104.515 1.931,55.79 48.724,99.451 104.515,97.521 C -41.727,102.586 1.933,55.788 0,0"
             style="fill:#45a12b;fill-opacity:1;fill-rule:nonzero;stroke:none"
             id="path224" /></g><g
           id="g226"
           transform="matrix(0.41044788,0,0,1.0001235,387.2711,693.5638)"><path
             d="m 0,0 c -1.932,-55.784 -48.724,-99.448 -104.514,-97.518 -55.792,1.933 -99.45,48.731 -97.518,104.515 1.931,55.79 48.724,99.451 104.515,97.521 C -41.727,102.586 1.933,55.788 0,0 Z"
             style="fill:none;stroke:#45a12b;stroke-width:1;stroke-linecap:butt;stroke-linejoin:miter;stroke-miterlimit:4;stroke-dasharray:none;stroke-opacity:1"
             id="path228" /></g><g
           id="g230"
           transform="matrix(0.41044788,0,0,1.0001235,310.6564,983.19427)"><path
             d="m 0,0 -107.524,-115.716 9.917,-173.533 186.352,-22.382 -3.177,197.422 z"
             style="fill:#45a12b;fill-opacity:1;fill-rule:nonzero;stroke:none"
             id="path232" /></g><g
           id="g234"
           transform="matrix(0.41044788,0,0,1.0001235,310.6564,983.19427)"><path
             d="m 0,0 -107.524,-115.716 9.917,-173.533 186.352,-22.382 -3.177,197.422 z"
             style="fill:none;stroke:#45a12b;stroke-width:1;stroke-linecap:butt;stroke-linejoin:miter;stroke-miterlimit:4;stroke-dasharray:none;stroke-opacity:1"
             id="path236" /></g><g
           id="g238"
           transform="matrix(0.41044788,0,0,1.0001235,73.032577,784.92708)"><path
             d="m 0,0 c 10.417,-28.366 -4.134,-59.805 -32.501,-70.221 -28.367,-10.419 -59.808,4.131 -70.225,32.496 -10.417,28.368 4.135,59.809 32.5,70.226 C -41.86,42.918 -10.417,28.367 0,0"
             style="fill:#45a12b;fill-opacity:1;fill-rule:nonzero;stroke:none"
             id="path240" /></g><g
           id="g242"
           transform="matrix(0.41044788,0,0,1.0001235,73.032577,784.92708)"><path
             d="m 0,0 c 10.417,-28.366 -4.134,-59.805 -32.501,-70.221 -28.367,-10.419 -59.808,4.131 -70.225,32.496 -10.417,28.368 4.135,59.809 32.5,70.226 C -41.86,42.918 -10.417,28.367 0,0 Z"
             style="fill:none;stroke:#45a12b;stroke-width:1;stroke-linecap:butt;stroke-linejoin:miter;stroke-miterlimit:4;stroke-dasharray:none;stroke-opacity:1"
             id="path244" /></g><g
           id="g246"
           transform="matrix(0.41044788,0,0,1.0001235,59.491981,692.47677)"><path
             d="m 0,0 c 10.417,-28.359 -4.132,-59.799 -32.503,-70.216 -28.361,-10.416 -59.802,4.132 -70.218,32.493 -10.418,28.367 4.133,59.809 32.496,70.224 C -41.855,42.92 -10.417,28.367 0,0"
             style="fill:#45a12b;fill-opacity:1;fill-rule:nonzero;stroke:none"
             id="path248" /></g><g
           id="g250"
           transform="matrix(0.41044788,0,0,1.0001235,59.491981,692.47677)"><path
             d="m 0,0 c 10.417,-28.359 -4.132,-59.799 -32.503,-70.216 -28.361,-10.416 -59.802,4.132 -70.218,32.493 -10.418,28.367 4.133,59.809 32.496,70.224 C -41.855,42.92 -10.417,28.367 0,0 Z"
             style="fill:none;stroke:#45a12b;stroke-width:1;stroke-linecap:butt;stroke-linejoin:miter;stroke-miterlimit:4;stroke-dasharray:none;stroke-opacity:1"
             id="path252" /></g><g
           id="g254"
           transform="matrix(0.41044788,0,0,1.0001235,109.52115,737.2459)"><path
             d="m 0,0 c 10.416,-28.362 -4.131,-59.799 -32.498,-70.215 -28.369,-10.418 -59.806,4.131 -70.22,32.493 -10.417,28.366 4.131,59.807 32.497,70.223 C -41.854,42.92 -10.417,28.366 0,0"
             style="fill:#45a12b;fill-opacity:1;fill-rule:nonzero;stroke:none"
             id="path256" /></g><g
           id="g258"
           transform="matrix(0.41044788,0,0,1.0001235,109.52115,737.2459)"><path
             d="m 0,0 c 10.416,-28.362 -4.131,-59.799 -32.498,-70.215 -28.369,-10.418 -59.806,4.131 -70.22,32.493 -10.417,28.366 4.131,59.807 32.497,70.223 C -41.854,42.92 -10.417,28.366 0,0 Z"
             style="fill:none;stroke:#45a12b;stroke-width:1;stroke-linecap:butt;stroke-linejoin:miter;stroke-miterlimit:4;stroke-dasharray:none;stroke-opacity:1"
             id="path260" /></g><g
           id="g262"
           transform="matrix(0.41044788,0,0,1.0001235,81.727294,578.61991)"><path
             d="m 0,0 c 14.062,-38.29 -5.58,-80.741 -43.878,-94.805 -38.296,-14.066 -80.747,5.583 -94.808,43.873 -14.064,38.296 5.582,80.745 43.878,94.809 C -56.51,57.942 -14.064,38.296 0,0"
             style="fill:#45a12b;fill-opacity:1;fill-rule:nonzero;stroke:none"
             id="path264" /></g><g
           id="g266"
           transform="matrix(0.41044788,0,0,1.0001235,81.727294,578.61991)"><path
             d="m 0,0 c 14.062,-38.29 -5.58,-80.741 -43.878,-94.805 -38.296,-14.066 -80.747,5.583 -94.808,43.873 -14.064,38.296 5.582,80.745 43.878,94.809 C -56.51,57.942 -14.064,38.296 0,0 Z"
             style="fill:none;stroke:#45a12b;stroke-width:1;stroke-linecap:butt;stroke-linejoin:miter;stroke-miterlimit:4;stroke-dasharray:none;stroke-opacity:1"
             id="path268" /></g><g
           id="g270"
           transform="matrix(0.41044788,0,0,1.0001235,136.36337,627.50875)"><path
             d="m 0,0 c 14.061,-38.29 -5.583,-80.741 -43.879,-94.804 -38.298,-14.064 -80.746,5.584 -94.807,43.875 -14.065,38.294 5.579,80.744 43.876,94.808 C -56.514,57.941 -14.064,38.299 0,0"
             style="fill:#45a12b;fill-opacity:1;fill-rule:nonzero;stroke:none"
             id="path272" /></g><g
           id="g274"
           transform="matrix(0.41044788,0,0,1.0001235,136.36337,627.50875)"><path
             d="m 0,0 c 14.061,-38.29 -5.583,-80.741 -43.879,-94.804 -38.298,-14.064 -80.746,5.584 -94.807,43.875 -14.065,38.294 5.579,80.744 43.876,94.808 C -56.514,57.941 -14.064,38.299 0,0 Z"
             style="fill:none;stroke:#45a12b;stroke-width:1;stroke-linecap:butt;stroke-linejoin:miter;stroke-miterlimit:4;stroke-dasharray:none;stroke-opacity:1"
             id="path276" /></g><g
           id="g278"
           transform="matrix(0.41044788,0,0,1.0001235,51.7504,772.1262)"><path
             d="M 0,0 -40.905,-107.955 13.627,-222.693 145.936,-186.495 89.39,-53.732 Z"
             style="fill:#45a12b;fill-opacity:1;fill-rule:nonzero;stroke:none"
             id="path280" /></g><g
           id="g282"
           transform="matrix(0.41044788,0,0,1.0001235,51.7504,772.1262)"><path
             d="M 0,0 -40.905,-107.955 13.627,-222.693 145.936,-186.495 89.39,-53.732 Z"
             style="fill:none;stroke:#45a12b;stroke-width:1;stroke-linecap:butt;stroke-linejoin:miter;stroke-miterlimit:4;stroke-dasharray:none;stroke-opacity:1"
             id="path284" /></g><g
           id="g286"
           transform="matrix(0.41044788,0,0,1.0001235,300.24051,668.4254)"><path
             d="m 0,0 c -1.728,-49.893 -3.456,-99.787 -5.184,-149.68 -0.314,-9.092 -0.629,-18.184 -0.944,-27.276 -0.469,-13.549 20.532,-13.503 21,0 1.728,49.893 3.456,99.787 5.184,149.68 C 20.37,-18.184 20.685,-9.092 21,0 21.469,13.549 0.468,13.503 0,0"
             style="fill:#45a12b;fill-opacity:1;fill-rule:nonzero;stroke:none"
             id="path288" /></g><g
           id="g290"
           transform="matrix(0.41044788,0,0,1.0001235,529.19187,571.50813)"><path
             d="m 0,0 c -5.914,-38.216 -11.828,-76.432 -17.743,-114.647 -9.324,-60.248 -18.648,-120.495 -27.972,-180.743 -2.008,-12.968 -4.014,-25.936 -6.021,-38.903 -0.875,-5.652 1.345,-11.27 7.334,-12.917 5.031,-1.384 12.039,1.669 12.916,7.334 5.914,38.215 11.828,76.431 17.743,114.647 9.324,60.247 18.647,120.495 27.972,180.742 2.007,12.968 4.014,25.936 6.021,38.904 C 21.125,0.068 18.904,5.687 12.916,7.333 7.885,8.717 0.877,5.665 0,0"
             style="fill:#45a12b;fill-opacity:1;fill-rule:nonzero;stroke:none"
             id="path292" /></g><g
           id="g294"
           transform="matrix(0.41044788,0,0,1.0001235,731.6914,323.52391)"><path
             d="m 0,0 c -6.44,-49.507 -12.88,-99.013 -19.32,-148.52 -1.173,-9.022 -2.347,-18.043 -3.521,-27.064 -0.74,-5.691 5.336,-10.5 10.5,-10.5 6.282,0 9.762,4.825 10.5,10.5 6.441,49.506 12.88,99.013 19.32,148.52 C 18.653,-18.043 19.826,-9.021 21,0 21.74,5.691 15.663,10.5 10.5,10.5 4.218,10.5 0.738,5.674 0,0"
             style="fill:#45a12b;fill-opacity:1;fill-rule:nonzero;stroke:none"
             id="path296" /></g></g></g></g></svg>
